<mxfile host="app.diagrams.net" agent="Mozilla/5.0 (Windows NT 10.0; Win64; x64) AppleWebKit/537.36 (KHTML, like Gecko) Chrome/136.0.0.0 Safari/537.36" version="27.0.8">
  <diagram name="Страница — 1" id="YpVK3klgt3aUsxTVvjjX">
    <mxGraphModel dx="793" dy="795" grid="1" gridSize="10" guides="1" tooltips="1" connect="1" arrows="1" fold="1" page="1" pageScale="1" pageWidth="827" pageHeight="1169" math="0" shadow="0">
      <root>
        <mxCell id="0" />
        <mxCell id="1" parent="0" />
        <mxCell id="qBJlmdPtEVBBzO3PNfG6-1" style="edgeStyle=orthogonalEdgeStyle;rounded=0;orthogonalLoop=1;jettySize=auto;html=1;entryX=0.5;entryY=0;entryDx=0;entryDy=0;" edge="1" parent="1" source="qBJlmdPtEVBBzO3PNfG6-2" target="qBJlmdPtEVBBzO3PNfG6-7">
          <mxGeometry relative="1" as="geometry" />
        </mxCell>
        <mxCell id="qBJlmdPtEVBBzO3PNfG6-2" value="&lt;div style=&quot;font-family: Consolas, &amp;quot;Courier New&amp;quot;, monospace; font-size: 14px; line-height: 19px; white-space: pre;&quot;&gt;&lt;span style=&quot;color: light-dark(rgb(0, 0, 0), rgb(237, 237, 237)); background-color: transparent;&quot;&gt;field_num &amp;lt; 4 &lt;/span&gt;&lt;/div&gt;&lt;div style=&quot;font-family: Consolas, &amp;quot;Courier New&amp;quot;, monospace; font-size: 14px; line-height: 19px; white-space: pre;&quot;&gt;&lt;span&gt;&lt;font style=&quot;color: rgb(0, 0, 0);&quot;&gt;&amp;amp;&amp;amp; is_valid&lt;/font&gt;&lt;/span&gt;&lt;/div&gt;" style="rhombus;whiteSpace=wrap;html=1;" vertex="1" parent="1">
          <mxGeometry x="490.11999999999944" y="100" width="139.88" height="64" as="geometry" />
        </mxCell>
        <mxCell id="qBJlmdPtEVBBzO3PNfG6-3" value="&lt;div style=&quot;font-family: Consolas, &amp;quot;Courier New&amp;quot;, monospace; line-height: 19px; white-space: pre;&quot;&gt;&lt;div style=&quot;&quot;&gt;&lt;div style=&quot;line-height: 19px;&quot;&gt;&lt;div style=&quot;&quot;&gt;field_num++&lt;/div&gt;&lt;/div&gt;&lt;/div&gt;&lt;/div&gt;" style="whiteSpace=wrap;html=1;fontSize=14;fontFamily=Consolas;rounded=1;arcSize=0;" vertex="1" parent="1">
          <mxGeometry x="491.74999999999955" y="560" width="125" height="40" as="geometry" />
        </mxCell>
        <mxCell id="qBJlmdPtEVBBzO3PNfG6-4" value="Да" style="text;html=1;align=center;verticalAlign=middle;resizable=0;points=[];autosize=1;strokeColor=none;fillColor=none;" vertex="1" parent="1">
          <mxGeometry x="568.4999999999995" y="160" width="40" height="30" as="geometry" />
        </mxCell>
        <mxCell id="qBJlmdPtEVBBzO3PNfG6-5" value="Нет" style="text;html=1;align=center;verticalAlign=middle;resizable=0;points=[];autosize=1;strokeColor=none;fillColor=none;" vertex="1" parent="1">
          <mxGeometry x="629.9999999999995" y="100" width="40" height="30" as="geometry" />
        </mxCell>
        <mxCell id="qBJlmdPtEVBBzO3PNfG6-6" style="edgeStyle=orthogonalEdgeStyle;rounded=0;orthogonalLoop=1;jettySize=auto;html=1;" edge="1" parent="1" source="qBJlmdPtEVBBzO3PNfG6-7" target="qBJlmdPtEVBBzO3PNfG6-9">
          <mxGeometry relative="1" as="geometry" />
        </mxCell>
        <mxCell id="qBJlmdPtEVBBzO3PNfG6-7" value="&lt;div style=&quot;font-family: Consolas, &amp;quot;Courier New&amp;quot;, monospace; line-height: 19px; white-space: pre;&quot;&gt;&lt;div style=&quot;&quot;&gt;&lt;div style=&quot;line-height: 19px;&quot;&gt;&lt;div style=&quot;&quot;&gt;&lt;div style=&quot;line-height: 19px;&quot;&gt;&lt;div style=&quot;&quot;&gt;&lt;span&gt;&lt;font style=&quot;color: rgb(0, 0, 0);&quot;&gt;char* dest = NULL;&lt;/font&gt;&lt;/span&gt;&lt;/div&gt;&lt;div style=&quot;&quot;&gt;&lt;span style=&quot;color: light-dark(rgb(0, 0, 0), rgb(237, 237, 237)); background-color: transparent;&quot;&gt;int max_len = 0;&lt;/span&gt;&lt;/div&gt;&lt;div style=&quot;&quot;&gt;&lt;span&gt;&lt;font style=&quot;color: rgb(0, 0, 0);&quot;&gt;  char field_name[20];&lt;/font&gt;&lt;/span&gt;&lt;/div&gt;&lt;/div&gt;&lt;/div&gt;&lt;/div&gt;&lt;/div&gt;&lt;/div&gt;" style="whiteSpace=wrap;html=1;fontSize=14;fontFamily=Consolas;rounded=1;arcSize=0;" vertex="1" parent="1">
          <mxGeometry x="478.49999999999955" y="190" width="160" height="70" as="geometry" />
        </mxCell>
        <mxCell id="qBJlmdPtEVBBzO3PNfG6-8" style="edgeStyle=orthogonalEdgeStyle;rounded=0;orthogonalLoop=1;jettySize=auto;html=1;entryX=0.5;entryY=0;entryDx=0;entryDy=0;" edge="1" parent="1" source="qBJlmdPtEVBBzO3PNfG6-9" target="qBJlmdPtEVBBzO3PNfG6-11">
          <mxGeometry relative="1" as="geometry">
            <mxPoint x="718.4999999999995" y="320" as="targetPoint" />
          </mxGeometry>
        </mxCell>
        <mxCell id="qBJlmdPtEVBBzO3PNfG6-9" value="&lt;div style=&quot;font-family: Consolas, &amp;quot;Courier New&amp;quot;, monospace; font-size: 14px; line-height: 19px; white-space: pre;&quot;&gt;&lt;div style=&quot;line-height: 19px;&quot;&gt;&lt;span&gt;&lt;font style=&quot;color: rgb(0, 0, 0);&quot;&gt;field_num == 0&lt;/font&gt;&lt;/span&gt;&lt;/div&gt;&lt;/div&gt;" style="rhombus;whiteSpace=wrap;html=1;" vertex="1" parent="1">
          <mxGeometry x="488.5599999999995" y="280" width="139.88" height="64" as="geometry" />
        </mxCell>
        <mxCell id="qBJlmdPtEVBBzO3PNfG6-10" style="edgeStyle=orthogonalEdgeStyle;rounded=0;orthogonalLoop=1;jettySize=auto;html=1;" edge="1" parent="1" source="qBJlmdPtEVBBzO3PNfG6-11" target="qBJlmdPtEVBBzO3PNfG6-13">
          <mxGeometry relative="1" as="geometry" />
        </mxCell>
        <mxCell id="qBJlmdPtEVBBzO3PNfG6-11" value="&lt;div style=&quot;font-family: Consolas, &amp;quot;Courier New&amp;quot;, monospace; line-height: 19px; white-space: pre;&quot;&gt;&lt;div style=&quot;&quot;&gt;&lt;div style=&quot;line-height: 19px;&quot;&gt;&lt;div style=&quot;&quot;&gt;&lt;div style=&quot;line-height: 19px;&quot;&gt;&lt;div style=&quot;&quot;&gt;&lt;div style=&quot;line-height: 19px;&quot;&gt;&lt;div style=&quot;&quot;&gt;&lt;span&gt;&lt;font style=&quot;color: rgb(0, 0, 0);&quot;&gt;dest = p.time;&lt;/font&gt;&lt;/span&gt;&lt;/div&gt;&lt;div style=&quot;&quot;&gt;&lt;span&gt;&lt;font style=&quot;color: rgb(0, 0, 0);&quot;&gt;max_len = TIME_LEN-1;&lt;/font&gt;&lt;/span&gt;&lt;/div&gt;&lt;/div&gt;&lt;/div&gt;&lt;/div&gt;&lt;/div&gt;&lt;/div&gt;&lt;/div&gt;&lt;/div&gt;" style="whiteSpace=wrap;html=1;fontSize=14;fontFamily=Consolas;rounded=1;arcSize=0;" vertex="1" parent="1">
          <mxGeometry x="478.49999999999955" y="370" width="160" height="70" as="geometry" />
        </mxCell>
        <mxCell id="qBJlmdPtEVBBzO3PNfG6-12" style="edgeStyle=orthogonalEdgeStyle;rounded=0;orthogonalLoop=1;jettySize=auto;html=1;entryX=0.5;entryY=0;entryDx=0;entryDy=0;" edge="1" parent="1" source="qBJlmdPtEVBBzO3PNfG6-13" target="qBJlmdPtEVBBzO3PNfG6-15">
          <mxGeometry relative="1" as="geometry">
            <mxPoint x="718.4999999999995" y="500" as="targetPoint" />
          </mxGeometry>
        </mxCell>
        <mxCell id="qBJlmdPtEVBBzO3PNfG6-13" value="&lt;div style=&quot;font-family: Consolas, &amp;quot;Courier New&amp;quot;, monospace; font-size: 14px; line-height: 19px; white-space: pre;&quot;&gt;&lt;div style=&quot;line-height: 19px;&quot;&gt;&lt;span&gt;&lt;font style=&quot;color: rgb(0, 0, 0);&quot;&gt;field_num == 1&lt;/font&gt;&lt;/span&gt;&lt;/div&gt;&lt;/div&gt;" style="rhombus;whiteSpace=wrap;html=1;" vertex="1" parent="1">
          <mxGeometry x="488.5599999999995" y="460" width="139.88" height="64" as="geometry" />
        </mxCell>
        <mxCell id="qBJlmdPtEVBBzO3PNfG6-14" style="edgeStyle=orthogonalEdgeStyle;rounded=0;orthogonalLoop=1;jettySize=auto;html=1;" edge="1" parent="1" source="qBJlmdPtEVBBzO3PNfG6-15" target="qBJlmdPtEVBBzO3PNfG6-17">
          <mxGeometry relative="1" as="geometry" />
        </mxCell>
        <mxCell id="qBJlmdPtEVBBzO3PNfG6-15" value="&lt;div style=&quot;font-family: Consolas, &amp;quot;Courier New&amp;quot;, monospace; line-height: 19px; white-space: pre;&quot;&gt;&lt;div style=&quot;&quot;&gt;&lt;div style=&quot;line-height: 19px;&quot;&gt;&lt;div style=&quot;&quot;&gt;&lt;div style=&quot;line-height: 19px;&quot;&gt;&lt;div style=&quot;&quot;&gt;&lt;div style=&quot;line-height: 19px;&quot;&gt;&lt;div style=&quot;&quot;&gt;&lt;span&gt;&lt;font style=&quot;color: rgb(0, 0, 0);&quot;&gt;dest = p.&lt;/font&gt;&lt;/span&gt;&lt;span&gt;&lt;font style=&quot;color: rgb(0, 0, 0);&quot;&gt;model&lt;/font&gt;&lt;/span&gt;&lt;span style=&quot;color: light-dark(rgb(0, 0, 0), rgb(237, 237, 237)); background-color: transparent;&quot;&gt;;&lt;/span&gt;&lt;br&gt;&lt;/div&gt;&lt;div style=&quot;&quot;&gt;&lt;span&gt;&lt;font style=&quot;color: rgb(0, 0, 0);&quot;&gt;max_len = &lt;/font&gt;&lt;/span&gt;&lt;span&gt;&lt;font style=&quot;color: rgb(0, 0, 0);&quot;&gt;MODEL_LEN&lt;/font&gt;&lt;/span&gt;&lt;span style=&quot;color: light-dark(rgb(0, 0, 0), rgb(237, 237, 237)); background-color: transparent;&quot;&gt;-1;&lt;/span&gt;&lt;br&gt;&lt;/div&gt;&lt;/div&gt;&lt;/div&gt;&lt;/div&gt;&lt;/div&gt;&lt;/div&gt;&lt;/div&gt;&lt;/div&gt;" style="whiteSpace=wrap;html=1;fontSize=14;fontFamily=Consolas;rounded=1;arcSize=0;" vertex="1" parent="1">
          <mxGeometry x="478.49999999999955" y="550" width="160" height="70" as="geometry" />
        </mxCell>
        <mxCell id="qBJlmdPtEVBBzO3PNfG6-16" style="edgeStyle=orthogonalEdgeStyle;rounded=0;orthogonalLoop=1;jettySize=auto;html=1;entryX=0.5;entryY=0;entryDx=0;entryDy=0;" edge="1" parent="1" source="qBJlmdPtEVBBzO3PNfG6-17" target="qBJlmdPtEVBBzO3PNfG6-19">
          <mxGeometry relative="1" as="geometry">
            <mxPoint x="718.4999999999995" y="680" as="targetPoint" />
          </mxGeometry>
        </mxCell>
        <mxCell id="qBJlmdPtEVBBzO3PNfG6-17" value="&lt;div style=&quot;font-family: Consolas, &amp;quot;Courier New&amp;quot;, monospace; font-size: 14px; line-height: 19px; white-space: pre;&quot;&gt;&lt;div style=&quot;line-height: 19px;&quot;&gt;&lt;span&gt;&lt;font style=&quot;color: rgb(0, 0, 0);&quot;&gt;field_num == 2&lt;/font&gt;&lt;/span&gt;&lt;/div&gt;&lt;/div&gt;" style="rhombus;whiteSpace=wrap;html=1;" vertex="1" parent="1">
          <mxGeometry x="488.5599999999995" y="640" width="139.88" height="64" as="geometry" />
        </mxCell>
        <mxCell id="qBJlmdPtEVBBzO3PNfG6-18" style="edgeStyle=orthogonalEdgeStyle;rounded=0;orthogonalLoop=1;jettySize=auto;html=1;" edge="1" parent="1" source="qBJlmdPtEVBBzO3PNfG6-19" target="qBJlmdPtEVBBzO3PNfG6-21">
          <mxGeometry relative="1" as="geometry" />
        </mxCell>
        <mxCell id="qBJlmdPtEVBBzO3PNfG6-19" value="&lt;div style=&quot;font-family: Consolas, &amp;quot;Courier New&amp;quot;, monospace; line-height: 19px; white-space: pre;&quot;&gt;&lt;div style=&quot;&quot;&gt;&lt;div style=&quot;line-height: 19px;&quot;&gt;&lt;div style=&quot;&quot;&gt;&lt;div style=&quot;line-height: 19px;&quot;&gt;&lt;div style=&quot;&quot;&gt;&lt;div style=&quot;line-height: 19px;&quot;&gt;&lt;div style=&quot;&quot;&gt;&lt;span&gt;&lt;font style=&quot;color: rgb(0, 0, 0);&quot;&gt;dest = p.&lt;/font&gt;&lt;/span&gt;&lt;font style=&quot;color: rgb(0, 0, 0);&quot;&gt;bort&lt;/font&gt;&lt;span style=&quot;color: light-dark(rgb(0, 0, 0), rgb(237, 237, 237)); background-color: transparent;&quot;&gt;;&lt;/span&gt;&lt;br&gt;&lt;/div&gt;&lt;div style=&quot;&quot;&gt;&lt;span&gt;&lt;font style=&quot;color: rgb(0, 0, 0);&quot;&gt;max_len = &lt;/font&gt;&lt;/span&gt;&lt;font style=&quot;color: rgb(0, 0, 0);&quot;&gt;BORT_LEN&lt;/font&gt;&lt;span style=&quot;color: light-dark(rgb(0, 0, 0), rgb(237, 237, 237)); background-color: transparent;&quot;&gt;-1;&lt;/span&gt;&lt;br&gt;&lt;/div&gt;&lt;/div&gt;&lt;/div&gt;&lt;/div&gt;&lt;/div&gt;&lt;/div&gt;&lt;/div&gt;&lt;/div&gt;" style="whiteSpace=wrap;html=1;fontSize=14;fontFamily=Consolas;rounded=1;arcSize=0;" vertex="1" parent="1">
          <mxGeometry x="478.49999999999955" y="730" width="160" height="70" as="geometry" />
        </mxCell>
        <mxCell id="qBJlmdPtEVBBzO3PNfG6-20" style="edgeStyle=orthogonalEdgeStyle;rounded=0;orthogonalLoop=1;jettySize=auto;html=1;entryX=0.5;entryY=0;entryDx=0;entryDy=0;" edge="1" parent="1" source="qBJlmdPtEVBBzO3PNfG6-21" target="qBJlmdPtEVBBzO3PNfG6-23">
          <mxGeometry relative="1" as="geometry">
            <mxPoint x="718.4999999999995" y="860" as="targetPoint" />
          </mxGeometry>
        </mxCell>
        <mxCell id="qBJlmdPtEVBBzO3PNfG6-21" value="&lt;div style=&quot;font-family: Consolas, &amp;quot;Courier New&amp;quot;, monospace; font-size: 14px; line-height: 19px; white-space: pre;&quot;&gt;&lt;div style=&quot;line-height: 19px;&quot;&gt;&lt;span&gt;&lt;font style=&quot;color: rgb(0, 0, 0);&quot;&gt;field_num == 3&lt;/font&gt;&lt;/span&gt;&lt;/div&gt;&lt;/div&gt;" style="rhombus;whiteSpace=wrap;html=1;" vertex="1" parent="1">
          <mxGeometry x="488.5599999999995" y="820" width="139.88" height="64" as="geometry" />
        </mxCell>
        <mxCell id="qBJlmdPtEVBBzO3PNfG6-22" style="edgeStyle=orthogonalEdgeStyle;rounded=0;orthogonalLoop=1;jettySize=auto;html=1;" edge="1" parent="1" source="qBJlmdPtEVBBzO3PNfG6-23" target="qBJlmdPtEVBBzO3PNfG6-33">
          <mxGeometry relative="1" as="geometry" />
        </mxCell>
        <mxCell id="qBJlmdPtEVBBzO3PNfG6-23" value="&lt;div style=&quot;font-family: Consolas, &amp;quot;Courier New&amp;quot;, monospace; line-height: 19px; white-space: pre;&quot;&gt;&lt;div style=&quot;&quot;&gt;&lt;div style=&quot;line-height: 19px;&quot;&gt;&lt;div style=&quot;&quot;&gt;&lt;div style=&quot;line-height: 19px;&quot;&gt;&lt;div style=&quot;&quot;&gt;&lt;div style=&quot;line-height: 19px;&quot;&gt;&lt;div style=&quot;&quot;&gt;&lt;span&gt;&lt;font style=&quot;color: rgb(0, 0, 0);&quot;&gt;dest = p.&lt;/font&gt;&lt;/span&gt;&lt;span&gt;&lt;font style=&quot;color: rgb(0, 0, 0);&quot;&gt;airport&lt;/font&gt;&lt;/span&gt;&lt;span style=&quot;color: light-dark(rgb(0, 0, 0), rgb(237, 237, 237)); background-color: transparent;&quot;&gt;;&lt;/span&gt;&lt;br&gt;&lt;/div&gt;&lt;div style=&quot;&quot;&gt;&lt;span&gt;&lt;font style=&quot;color: rgb(0, 0, 0);&quot;&gt;max_len = &lt;/font&gt;&lt;/span&gt;&lt;font style=&quot;color: rgb(0, 0, 0);&quot;&gt;AIRPORT_LEN&lt;/font&gt;&lt;span style=&quot;color: light-dark(rgb(0, 0, 0), rgb(237, 237, 237)); background-color: transparent;&quot;&gt;-1;&lt;/span&gt;&lt;br&gt;&lt;/div&gt;&lt;/div&gt;&lt;/div&gt;&lt;/div&gt;&lt;/div&gt;&lt;/div&gt;&lt;/div&gt;&lt;/div&gt;" style="whiteSpace=wrap;html=1;fontSize=14;fontFamily=Consolas;rounded=1;arcSize=0;" vertex="1" parent="1">
          <mxGeometry x="478.49999999999955" y="910" width="160" height="70" as="geometry" />
        </mxCell>
        <mxCell id="qBJlmdPtEVBBzO3PNfG6-24" value="Нет" style="text;html=1;align=center;verticalAlign=middle;resizable=0;points=[];autosize=1;strokeColor=none;fillColor=none;" vertex="1" parent="1">
          <mxGeometry x="629.9999999999995" y="280" width="40" height="30" as="geometry" />
        </mxCell>
        <mxCell id="qBJlmdPtEVBBzO3PNfG6-25" value="Да" style="text;html=1;align=center;verticalAlign=middle;resizable=0;points=[];autosize=1;strokeColor=none;fillColor=none;" vertex="1" parent="1">
          <mxGeometry x="568.4999999999995" y="340" width="40" height="30" as="geometry" />
        </mxCell>
        <mxCell id="qBJlmdPtEVBBzO3PNfG6-26" value="Нет" style="text;html=1;align=center;verticalAlign=middle;resizable=0;points=[];autosize=1;strokeColor=none;fillColor=none;" vertex="1" parent="1">
          <mxGeometry x="639.9999999999995" y="450" width="40" height="30" as="geometry" />
        </mxCell>
        <mxCell id="qBJlmdPtEVBBzO3PNfG6-27" value="Да" style="text;html=1;align=center;verticalAlign=middle;resizable=0;points=[];autosize=1;strokeColor=none;fillColor=none;" vertex="1" parent="1">
          <mxGeometry x="578.4999999999995" y="510" width="40" height="30" as="geometry" />
        </mxCell>
        <mxCell id="qBJlmdPtEVBBzO3PNfG6-28" value="Нет" style="text;html=1;align=center;verticalAlign=middle;resizable=0;points=[];autosize=1;strokeColor=none;fillColor=none;" vertex="1" parent="1">
          <mxGeometry x="639.9999999999995" y="640" width="40" height="30" as="geometry" />
        </mxCell>
        <mxCell id="qBJlmdPtEVBBzO3PNfG6-29" value="Да" style="text;html=1;align=center;verticalAlign=middle;resizable=0;points=[];autosize=1;strokeColor=none;fillColor=none;" vertex="1" parent="1">
          <mxGeometry x="578.4999999999995" y="700" width="40" height="30" as="geometry" />
        </mxCell>
        <mxCell id="qBJlmdPtEVBBzO3PNfG6-30" value="Нет" style="text;html=1;align=center;verticalAlign=middle;resizable=0;points=[];autosize=1;strokeColor=none;fillColor=none;" vertex="1" parent="1">
          <mxGeometry x="629.9999999999995" y="820" width="40" height="30" as="geometry" />
        </mxCell>
        <mxCell id="qBJlmdPtEVBBzO3PNfG6-31" value="Да" style="text;html=1;align=center;verticalAlign=middle;resizable=0;points=[];autosize=1;strokeColor=none;fillColor=none;" vertex="1" parent="1">
          <mxGeometry x="568.4999999999995" y="880" width="40" height="30" as="geometry" />
        </mxCell>
        <mxCell id="qBJlmdPtEVBBzO3PNfG6-32" style="edgeStyle=orthogonalEdgeStyle;rounded=0;orthogonalLoop=1;jettySize=auto;html=1;entryX=0;entryY=0.5;entryDx=0;entryDy=0;" edge="1" parent="1" source="qBJlmdPtEVBBzO3PNfG6-35" target="qBJlmdPtEVBBzO3PNfG6-2">
          <mxGeometry relative="1" as="geometry">
            <Array as="points">
              <mxPoint x="388.49999999999955" y="132" />
            </Array>
          </mxGeometry>
        </mxCell>
        <mxCell id="qBJlmdPtEVBBzO3PNfG6-33" value="&lt;div style=&quot;font-family: Consolas, &amp;quot;Courier New&amp;quot;, monospace; line-height: 19px; white-space: pre;&quot;&gt;&lt;div style=&quot;&quot;&gt;&lt;div style=&quot;line-height: 19px;&quot;&gt;&lt;div style=&quot;&quot;&gt;&lt;div style=&quot;line-height: 19px;&quot;&gt;&lt;div style=&quot;&quot;&gt;&lt;div style=&quot;line-height: 19px;&quot;&gt;&lt;div style=&quot;&quot;&gt;Пропуск пробелов&lt;/div&gt;&lt;div style=&quot;&quot;&gt;и обработка &lt;/div&gt;&lt;div style=&quot;&quot;&gt;разделителей&lt;/div&gt;&lt;/div&gt;&lt;/div&gt;&lt;/div&gt;&lt;/div&gt;&lt;/div&gt;&lt;/div&gt;&lt;/div&gt;" style="whiteSpace=wrap;html=1;fontSize=14;fontFamily=Consolas;rounded=1;arcSize=0;" vertex="1" parent="1">
          <mxGeometry x="481.3899999999999" y="1001" width="154.22" height="50" as="geometry" />
        </mxCell>
        <mxCell id="qBJlmdPtEVBBzO3PNfG6-34" value="" style="edgeStyle=orthogonalEdgeStyle;rounded=0;orthogonalLoop=1;jettySize=auto;html=1;" edge="1" parent="1" source="qBJlmdPtEVBBzO3PNfG6-33" target="qBJlmdPtEVBBzO3PNfG6-35">
          <mxGeometry relative="1" as="geometry">
            <mxPoint x="558.4999999999995" y="1051" as="sourcePoint" />
            <mxPoint x="490.49999999999955" y="132" as="targetPoint" />
            <Array as="points">
              <mxPoint x="558.4999999999995" y="1071" />
              <mxPoint x="388.49999999999955" y="1071" />
            </Array>
          </mxGeometry>
        </mxCell>
        <mxCell id="qBJlmdPtEVBBzO3PNfG6-35" value="&lt;div style=&quot;font-family: Consolas, &amp;quot;Courier New&amp;quot;, monospace; line-height: 19px; white-space: pre;&quot;&gt;&lt;div style=&quot;&quot;&gt;&lt;div style=&quot;line-height: 19px;&quot;&gt;&lt;div style=&quot;&quot;&gt;&lt;div style=&quot;line-height: 19px;&quot;&gt;&lt;div style=&quot;&quot;&gt;&lt;div style=&quot;line-height: 19px;&quot;&gt;&lt;div style=&quot;&quot;&gt;field_num ++&lt;/div&gt;&lt;/div&gt;&lt;/div&gt;&lt;/div&gt;&lt;/div&gt;&lt;/div&gt;&lt;/div&gt;&lt;/div&gt;" style="whiteSpace=wrap;html=1;fontSize=14;fontFamily=Consolas;rounded=1;arcSize=0;" vertex="1" parent="1">
          <mxGeometry x="310" y="781" width="154.22" height="50" as="geometry" />
        </mxCell>
      </root>
    </mxGraphModel>
  </diagram>
</mxfile>
